# Blender v2.79 (sub 0) OBJ File: ''
# www.blender.org
o Cube.003
v -0.100000 0.100000 -1.000000
v -0.100000 0.100000 1.000000
v -2.100000 0.100000 1.000000
v -2.100000 0.100000 -1.000000
v -0.100000 2.100000 -1.000000
v -0.100001 2.100000 1.000000
v -2.100000 2.100000 1.000000
v -2.100000 2.100000 -1.000000
v -0.200000 2.200000 -0.899999
v -0.200001 2.200000 0.900000
v -2.000000 2.200000 -0.900000
v -2.000000 2.200000 0.899999
v -0.200000 0.200000 -1.100000
v -2.000000 0.200000 -1.100001
v -0.200000 2.000000 -1.100000
v -2.000000 2.000000 -1.100000
v 0.000000 0.200000 -0.900000
v 0.000000 0.200000 0.900000
v 0.000000 2.000000 -0.900000
v -0.000001 2.000000 0.900000
v -2.100000 0.100000 1.000000
v -2.100000 0.100000 -1.000000
v -2.100000 2.100000 1.000000
v -2.100000 2.100000 -1.000000
v -2.200000 0.200000 0.900000
v -2.200000 0.200000 -0.900000
v -2.200000 2.000000 0.899999
v -2.200000 2.000000 -0.900000
v -0.200000 0.200000 1.100000
v -2.000000 0.200000 1.100000
v -0.200001 2.000000 1.100001
v -2.000000 2.000000 1.100000
v -0.200000 -0.000000 -0.900000
v -0.200000 -0.000000 0.900000
v -2.000000 -0.000000 -0.900000
v -2.000000 -0.000000 0.900000
v -0.110000 -0.100000 -0.990000
v -0.110000 -0.100000 0.990000
v -2.090000 -0.100000 -0.990000
v -2.090000 -0.100000 0.990000
v -0.110000 -2.100000 -0.990000
v -0.110000 -2.100000 0.990000
v -2.090000 -2.100000 -0.990000
v -2.090000 -2.100000 0.990000
v -0.209000 -2.200000 -0.891000
v -0.209000 -2.200000 0.891000
v -1.991000 -2.200000 -0.891000
v -1.991000 -2.200000 0.891000
v -2.190000 -0.200000 0.891000
v -2.190000 -0.200000 -0.891001
v -2.190000 -2.000000 0.891000
v -2.190000 -2.000000 -0.891001
v -0.209000 -0.200000 -1.090000
v -1.991000 -0.200000 -1.090001
v -0.209000 -2.000000 -1.090000
v -1.991000 -2.000000 -1.090001
v -0.010000 -0.200000 -0.891000
v -0.010000 -0.200000 0.891000
v -0.010000 -2.000000 -0.891000
v -0.010000 -2.000000 0.891000
v -0.209000 -0.200000 1.090000
v -1.991000 -0.200000 1.090000
v -0.209000 -2.000000 1.090000
v -1.991000 -2.000000 1.090000
v 0.100000 0.110000 -0.990000
v 0.100000 0.110000 0.990000
v 0.100001 2.090000 -0.989999
v 0.099999 2.090000 0.990000
v 2.100000 0.110000 -0.989999
v 2.100000 0.110000 0.990001
v 2.100000 2.090000 -0.989999
v 2.099999 2.090000 0.990001
v 2.200000 0.209000 -0.890999
v 2.200000 0.209000 0.891001
v 2.200000 1.991000 -0.890999
v 2.199999 1.991000 0.891001
v 0.200000 0.209000 1.090000
v 0.199999 1.991000 1.090001
v 2.000000 0.209000 1.090001
v 1.999999 1.991000 1.090001
v 0.200000 2.190000 -0.890999
v 0.199999 2.190000 0.891001
v 2.000000 2.190000 -0.890999
v 1.999999 2.190000 0.891001
v 0.200000 0.010000 -0.891000
v 0.200000 0.010000 0.891000
v 2.000000 0.010000 -0.890999
v 2.000000 0.010000 0.891001
v 0.200000 0.209000 -1.090000
v 0.200001 1.991000 -1.089999
v 2.000000 0.209000 -1.089999
v 2.000000 1.991000 -1.089999
v 0.090000 -0.110000 -0.980100
v 0.090000 -0.110000 0.980100
v 0.090000 -2.090000 -0.980100
v 0.090000 -2.090000 0.980100
v 2.090000 -0.110000 -0.980100
v 2.090000 -0.110000 0.980100
v 2.090000 -2.090000 -0.980100
v 2.090000 -2.090000 0.980100
v 0.190000 -1.991000 1.080100
v 0.190000 -0.209000 1.080100
v 1.990000 -1.991000 1.080100
v 1.990000 -0.209000 1.080100
v 2.190000 -0.209000 -0.882090
v 2.190000 -0.209000 0.882090
v 2.190000 -1.991000 -0.882090
v 2.190000 -1.991000 0.882090
v 0.190000 -1.991000 -1.080100
v 0.190000 -0.209000 -1.080100
v 1.990000 -1.991000 -1.080100
v 1.990000 -0.209000 -1.080100
v 0.190000 -2.190000 -0.882090
v 0.190000 -2.190000 0.882090
v 1.990000 -2.190000 -0.882090
v 1.990000 -2.190000 0.882090
vn 0.7071 -0.7071 0.0000
vn -0.7071 0.7071 -0.0000
vn 0.7071 0.0000 0.7071
vn 0.0000 0.0000 1.0000
vn 0.7071 -0.0000 -0.7071
vn 0.0000 0.7071 -0.7071
vn -0.0000 0.7071 0.7071
vn 0.7071 0.7071 0.0000
vn 0.0000 0.0000 -1.0000
vn -0.7071 0.0000 -0.7071
vn 0.0000 -0.7071 -0.7071
vn -0.6690 0.7433 -0.0000
vn -0.7071 -0.0000 0.7071
vn -1.0000 0.0000 -0.0000
vn -0.7071 -0.7071 -0.0000
vn -0.0000 -0.7071 0.7071
vn -0.0000 0.6690 0.7433
vn 0.7433 0.6690 0.0000
vn -0.7433 0.6690 -0.0000
vn 0.0000 0.6690 -0.7433
vn -0.7107 -0.7035 -0.0000
vn 0.7035 0.0000 0.7107
vn -0.7035 0.0000 -0.7107
vn -0.7107 0.0000 -0.7035
vn 0.0000 -1.0000 0.0000
vn 0.0000 -0.7035 -0.7107
vn -0.0000 -0.7035 0.7107
vn 0.7107 -0.7035 0.0000
vn -0.7035 0.0000 0.7107
vn 0.7107 0.0000 -0.7035
vn 0.7035 0.0000 -0.7107
vn 0.7107 0.0000 0.7035
vn -0.7107 0.0000 0.7035
vn 0.0000 1.0000 0.0000
vn -0.6690 0.0000 -0.7433
vn -0.6690 -0.0000 0.7433
vn -0.6690 -0.7433 0.0000
vn 0.0000 0.7035 -0.7107
vn 0.0000 0.7107 -0.7035
vn 1.0000 0.0000 0.0000
vn 0.7035 -0.7106 0.0000
vn 0.7035 0.7106 0.0000
vn -0.0000 0.7107 0.7035
vn -0.0000 -0.7107 0.7035
vn -0.0000 0.7035 0.7107
vn 0.0000 -0.7107 -0.7035
vn -0.6652 0.0000 0.7466
vn -0.6652 0.0000 -0.7466
vn 0.7035 0.7107 0.0000
vn 0.0000 -0.7000 0.7142
vn -0.0000 0.5961 0.8029
vn 0.8000 0.6000 0.0000
vn 0.0000 0.5961 -0.8029
vn -0.7372 0.6757 0.0000
vn 0.7000 0.0000 -0.7142
vn 0.7035 -0.7107 0.0000
vn 0.7000 0.0000 0.7142
vn 0.0000 -0.7000 -0.7142
s off
f 1//1 2//1 34//1 33//1
f 8//2 7//2 12//2 11//2
f 6//3 2//3 18//3 20//3
f 2//3 6//3 31//3 29//3
f 7//4 8//4 24//4 23//4
f 5//5 1//5 13//5 15//5
f 5//6 8//6 11//6 9//6
f 7//7 6//7 10//7 12//7
f 6//8 5//8 9//8 10//8
f 15//9 13//9 14//9 16//9
f 8//6 5//6 15//6 16//6
f 4//10 8//10 16//10 14//10
f 1//11 4//11 14//11 13//11
f 19//12 20//12 68//12 67//12
f 1//5 5//5 19//5 17//5
f 2//1 1//1 17//1 18//1
f 5//8 6//8 20//8 19//8
f 21//13 23//13 27//13 25//13
f 8//4 4//4 22//4 24//4
f 4//4 3//4 21//4 22//4
f 3//4 7//4 23//4 21//4
f 25//14 27//14 28//14 26//14
f 24//10 22//10 26//10 28//10
f 22//15 21//15 25//15 26//15
f 23//2 24//2 28//2 27//2
f 29//4 31//4 32//4 30//4
f 3//16 2//16 29//16 30//16
f 6//7 7//7 32//7 31//7
f 7//13 3//13 30//13 32//13
f 34//17 36//17 40//17 38//17
f 3//15 4//15 35//15 36//15
f 2//16 3//16 36//16 34//16
f 4//11 1//11 33//11 35//11
f 38//7 40//7 62//7 61//7
f 33//18 34//18 38//18 37//18
f 36//19 35//19 39//19 40//19
f 35//20 33//20 37//20 39//20
f 44//21 43//21 47//21 48//21
f 38//22 42//22 60//22 58//22
f 39//23 43//23 52//23 50//23
f 43//24 39//24 54//24 56//24
f 45//25 46//25 48//25 47//25
f 43//26 41//26 45//26 47//26
f 42//27 44//27 48//27 46//27
f 41//28 42//28 46//28 45//28
f 49//14 50//14 52//14 51//14
f 43//15 44//15 51//15 52//15
f 40//2 39//2 50//2 49//2
f 44//29 40//29 49//29 51//29
f 54//9 53//9 55//9 56//9
f 41//11 43//11 56//11 55//11
f 37//30 41//30 55//30 53//30
f 39//6 37//6 53//6 54//6
f 37//8 38//8 58//8 57//8
f 41//31 37//31 57//31 59//31
f 42//1 41//1 59//1 60//1
f 61//4 62//4 64//4 63//4
f 42//32 38//32 61//32 63//32
f 40//33 44//33 64//33 62//33
f 44//16 42//16 63//16 64//16
f 9//34 11//34 12//34 10//34
f 70//3 72//3 80//3 79//3
f 17//35 19//35 67//35 65//35
f 20//36 18//36 66//36 68//36
f 18//37 17//37 65//37 66//37
f 72//22 70//22 74//22 76//22
f 69//1 70//1 88//1 87//1
f 71//38 67//38 81//38 83//38
f 67//39 71//39 92//39 90//39
f 73//40 75//40 76//40 74//40
f 70//41 69//41 73//41 74//41
f 71//42 72//42 76//42 75//42
f 69//31 71//31 75//31 73//31
f 78//4 77//4 79//4 80//4
f 68//13 66//13 77//13 78//13
f 72//43 68//43 78//43 80//43
f 66//44 70//44 79//44 77//44
f 81//34 82//34 84//34 83//34
f 68//45 72//45 84//45 82//45
f 72//8 71//8 83//8 84//8
f 67//2 68//2 82//2 81//2
f 86//25 85//25 87//25 88//25
f 66//15 65//15 85//15 86//15
f 65//26 69//26 87//26 85//26
f 70//27 66//27 86//27 88//27
f 89//9 90//9 92//9 91//9
f 71//5 69//5 91//5 92//5
f 69//46 65//46 89//46 91//46
f 65//10 67//10 90//10 89//10
f 58//47 60//47 96//47 94//47
f 93//34 94//34 98//34 97//34
f 57//12 58//12 94//12 93//12
f 59//48 57//48 93//48 95//48
f 60//37 59//37 95//37 96//37
f 97//49 98//49 106//49 105//49
f 93//39 97//39 112//39 110//39
f 100//50 96//50 114//50 116//50
f 96//44 100//44 103//44 101//44
f 86//51 94//51 98//51 88//51
f 97//52 87//52 88//52 98//52
f 93//53 85//53 87//53 97//53
f 85//54 93//54 94//54 86//54
f 102//4 101//4 103//4 104//4
f 94//13 96//13 101//13 102//13
f 98//43 94//43 102//43 104//43
f 100//3 98//3 104//3 103//3
f 106//40 108//40 107//40 105//40
f 99//55 97//55 105//55 107//55
f 100//56 99//56 107//56 108//56
f 98//57 100//57 108//57 106//57
f 109//9 110//9 112//9 111//9
f 97//5 99//5 111//5 112//5
f 95//10 93//10 110//10 109//10
f 99//46 95//46 109//46 111//46
f 114//25 113//25 115//25 116//25
f 99//1 100//1 116//1 115//1
f 95//58 99//58 115//58 113//58
f 96//15 95//15 113//15 114//15
