# Blender v2.79 (sub 0) OBJ File: ''
# www.blender.org
o Cube_Cube.001
v 0.161225 -1.035704 -0.961158
v 0.138338 -0.962909 1.037386
v 0.138755 1.035766 0.964591
v 0.161642 0.962971 -1.033953
v 2.161094 -1.035288 -0.938270
v 2.138207 -0.962491 1.060274
v 2.138623 1.036183 0.987478
v 2.161511 0.963388 -1.011066
v 2.259964 -0.931693 -0.840838
v 2.239366 -0.866176 0.957851
v 2.260339 0.867114 -0.906354
v 2.239741 0.932630 0.892334
v 0.262384 -0.939389 -1.063580
v 0.262759 0.859418 -1.129097
v 2.062266 -0.939014 -1.042981
v 2.062641 0.859793 -1.108498
v 0.260053 -1.131977 -0.856447
v 0.239455 -1.066461 0.942243
v 2.059936 -1.131603 -0.835847
v 2.039337 -1.066086 0.962842
v 0.138755 1.035766 0.964591
v 0.161642 0.962971 -1.033953
v 2.138623 1.036183 0.987478
v 2.161511 0.963388 -1.011066
v 0.239913 1.132081 0.862168
v 0.260512 1.066565 -0.936522
v 2.039795 1.132456 0.882766
v 2.060394 1.066940 -0.915923
v 0.237208 -0.859314 1.134818
v 0.237583 0.939493 1.069302
v 2.037090 -0.858939 1.155417
v 2.037465 0.939868 1.089900
v 0.060108 -0.932151 -0.866015
v 0.039510 -0.866635 0.932675
v 0.060483 0.866656 -0.931531
v 0.039885 0.932172 0.867159
v -0.038874 -1.025388 -0.953818
v -0.061533 -0.953321 1.024740
v -0.038462 0.953300 -1.025885
v -0.061120 1.025367 0.952673
v -2.038743 -1.025804 -0.976705
v -2.061401 -0.953737 1.001853
v -2.038330 0.952883 -1.048773
v -2.060989 1.024951 0.929786
v -2.139849 -0.923288 -0.882525
v -2.160241 -0.858427 0.898178
v -2.139477 0.857531 -0.947386
v -2.159870 0.922392 0.833317
v -0.159960 1.121677 0.848961
v -0.139567 1.056816 -0.931742
v -1.959841 1.121302 0.828362
v -1.939449 1.056441 -0.952340
v -0.137703 -0.930114 -1.058493
v -0.137331 0.850705 -1.123354
v -1.937585 -0.930489 -1.079091
v -1.937213 0.850330 -1.143952
v -0.140021 -1.121739 -0.852394
v -0.160414 -1.056879 0.928308
v -1.939903 -1.122114 -0.872993
v -1.960296 -1.057253 0.907709
v -0.162650 -0.850767 1.119920
v -0.162278 0.930052 1.055059
v -1.962532 -0.851142 1.099321
v -1.962160 0.929677 1.034461
v 2.360969 -1.024889 -0.926352
v 2.338310 -0.952820 1.052206
v 2.361381 0.953800 -0.998420
v 2.338723 1.025867 0.980138
v 4.360837 -1.024472 -0.903465
v 4.338179 -0.952404 1.075093
v 4.361250 0.954216 -0.975533
v 4.338592 1.026284 1.003025
v 2.439870 1.122219 0.878714
v 2.460263 1.057358 -0.901988
v 4.239752 1.122594 0.899313
v 4.260145 1.057732 -0.881389
v 2.462127 -0.929573 -1.028739
v 2.462499 0.851246 -1.093600
v 4.262009 -0.929198 -1.008140
v 4.262380 0.851621 -1.073001
v 2.459808 -1.121198 -0.822640
v 2.439416 -1.056337 0.958062
v 4.259690 -1.120823 -0.802042
v 4.239297 -1.055962 0.978660
v 2.437180 -0.850225 1.149674
v 2.437551 0.930594 1.084812
v 4.237062 -0.849850 1.170272
v 4.237433 0.930969 1.105411
v -2.238841 -1.015592 -0.969461
v -2.261273 -0.944246 0.989311
v -2.238432 0.943308 -1.040808
v -2.260864 1.014655 0.917965
v -4.238710 -1.016009 -0.992349
v -4.261142 -0.944662 0.966424
v -4.238301 0.942892 -1.063696
v -4.260733 1.014239 0.895077
v -2.362391 -0.842682 1.084527
v -2.362023 0.920329 1.020315
v -4.162272 -0.843057 1.063928
v -4.161905 0.919955 0.999716
v -2.339977 -1.111980 -0.869027
v -2.360166 -1.047768 0.893868
v -4.139859 -1.112355 -0.889626
v -4.160048 -1.048143 0.873269
v -2.337670 -0.921308 -1.074100
v -2.337302 0.841703 -1.138313
v -4.137552 -0.921683 -1.094699
v -4.137184 0.841328 -1.158911
v -2.359715 1.111001 0.815242
v -2.339527 1.046789 -0.947654
v -4.159597 1.110626 0.794643
v -4.139409 1.046414 -0.968252
v -4.339804 -0.914517 -0.899122
v -4.359993 -0.850305 0.863774
v -4.339437 0.848493 -0.963334
v -4.359625 0.912706 0.799562
vn -0.7072 -0.7068 0.0176
vn 0.7072 0.7068 -0.0176
vn -0.0082 -0.6809 0.7323
vn 0.0000 0.0000 1.0000
vn 0.0079 -0.7324 -0.6809
vn -0.6774 0.0269 0.7351
vn 0.7152 -0.0256 -0.6985
vn 0.6990 0.0259 0.7147
vn 0.7069 -0.7065 0.0338
vn 0.0114 -0.0364 -0.9993
vn 0.0082 0.6809 -0.7323
vn -0.6990 -0.0259 -0.7147
vn -0.0002 -0.9993 0.0364
vn -0.0079 0.7324 0.6809
vn 0.0002 0.9993 -0.0364
vn -0.7069 0.7065 -0.0338
vn -0.0114 0.0364 0.9993
vn -0.7152 0.0256 0.6985
vn 0.6604 0.0272 0.7504
vn 0.6688 -0.7427 0.0347
vn 0.6691 0.7429 -0.0194
vn 0.6774 -0.0269 -0.7351
vn -0.7034 0.7100 -0.0339
vn -0.0083 -0.6772 0.7357
vn 0.0083 0.6772 -0.7357
vn 0.0082 0.6846 -0.7289
vn 0.6567 0.0273 0.7537
vn -0.6954 -0.0260 -0.7182
vn -0.7116 0.0257 0.7021
vn -0.7036 -0.7103 0.0178
vn -0.0080 0.7289 0.6845
vn 0.0079 -0.7358 -0.6772
vn 0.0080 -0.7289 -0.6845
vn -0.0082 -0.6846 0.7289
vn -0.0079 0.7358 0.6772
vn -0.6691 -0.7429 0.0194
vn -0.6688 0.7427 -0.0347
vn -0.6604 -0.0272 -0.7504
vn 0.9999 0.0002 0.0114
vn 0.6650 -0.7460 0.0348
vn 0.6654 0.7463 -0.0196
vn 0.6737 -0.0270 -0.7385
vn -0.7001 -0.7138 0.0180
vn 0.0083 0.6735 -0.7391
vn 0.0082 0.6882 -0.7254
vn -0.0082 -0.6882 0.7254
vn -0.0079 0.7392 0.6735
vn -0.0083 -0.6735 0.7391
vn 0.0080 -0.7255 -0.6882
vn 0.0079 -0.7392 -0.6735
vn -0.0080 0.7255 0.6882
vn -0.9999 -0.0002 -0.0114
vn -0.6998 0.7136 -0.0340
vn -0.6917 -0.0261 -0.7217
vn -0.7081 0.0258 0.7056
s off
f 1//1 2//1 34//1 33//1
f 8//2 7//2 12//2 11//2
f 6//3 2//3 18//3 20//3
f 2//3 6//3 31//3 29//3
f 7//4 8//4 24//4 23//4
f 5//5 1//5 13//5 15//5
f 12//6 10//6 66//6 68//6
f 5//7 8//7 11//7 9//7
f 7//8 6//8 10//8 12//8
f 6//9 5//9 9//9 10//9
f 15//10 13//10 14//10 16//10
f 8//7 5//7 15//7 16//7
f 4//11 8//11 16//11 14//11
f 1//12 4//12 14//12 13//12
f 17//13 19//13 20//13 18//13
f 1//5 5//5 19//5 17//5
f 2//1 1//1 17//1 18//1
f 5//9 6//9 20//9 19//9
f 21//14 23//14 27//14 25//14
f 8//4 4//4 22//4 24//4
f 4//4 3//4 21//4 22//4
f 3//4 7//4 23//4 21//4
f 25//15 27//15 28//15 26//15
f 24//11 22//11 26//11 28//11
f 22//16 21//16 25//16 26//16
f 23//2 24//2 28//2 27//2
f 29//17 31//17 32//17 30//17
f 3//18 2//18 29//18 30//18
f 6//8 7//8 32//8 31//8
f 7//14 3//14 30//14 32//14
f 34//19 36//19 40//19 38//19
f 3//16 4//16 35//16 36//16
f 2//18 3//18 36//18 34//18
f 4//12 1//12 33//12 35//12
f 38//8 40//8 62//8 61//8
f 33//20 34//20 38//20 37//20
f 36//21 35//21 39//21 40//21
f 35//22 33//22 37//22 39//22
f 44//23 43//23 47//23 48//23
f 38//24 42//24 60//24 58//24
f 39//25 43//25 52//25 50//25
f 43//26 39//26 54//26 56//26
f 46//27 48//27 92//27 90//27
f 43//28 41//28 45//28 47//28
f 42//29 44//29 48//29 46//29
f 41//30 42//30 46//30 45//30
f 49//15 50//15 52//15 51//15
f 43//16 44//16 51//16 52//16
f 40//2 39//2 50//2 49//2
f 44//31 40//31 49//31 51//31
f 54//10 53//10 55//10 56//10
f 41//12 43//12 56//12 55//12
f 37//32 41//32 55//32 53//32
f 39//7 37//7 53//7 54//7
f 57//13 58//13 60//13 59//13
f 37//9 38//9 58//9 57//9
f 41//33 37//33 57//33 59//33
f 42//1 41//1 59//1 60//1
f 61//17 62//17 64//17 63//17
f 42//34 38//34 61//34 63//34
f 40//35 44//35 64//35 62//35
f 44//18 42//18 63//18 64//18
f 68//18 66//18 85//18 86//18
f 10//36 9//36 65//36 66//36
f 11//37 12//37 68//37 67//37
f 9//38 11//38 67//38 65//38
f 69//39 71//39 72//39 70//39
f 65//33 69//33 83//33 81//33
f 67//16 68//16 73//16 74//16
f 71//7 69//7 79//7 80//7
f 74//15 73//15 75//15 76//15
f 71//25 67//25 74//25 76//25
f 68//31 72//31 75//31 73//31
f 72//2 71//2 76//2 75//2
f 77//10 78//10 80//10 79//10
f 69//32 65//32 77//32 79//32
f 65//12 67//12 78//12 77//12
f 67//26 71//26 80//26 78//26
f 82//13 81//13 83//13 84//13
f 70//24 66//24 82//24 84//24
f 69//9 70//9 84//9 83//9
f 66//1 65//1 81//1 82//1
f 86//17 85//17 87//17 88//17
f 72//35 68//35 86//35 88//35
f 66//34 70//34 87//34 85//34
f 70//8 72//8 88//8 87//8
f 90//8 92//8 98//8 97//8
f 45//40 46//40 90//40 89//40
f 48//41 47//41 91//41 92//41
f 47//42 45//42 89//42 91//42
f 93//43 94//43 114//43 113//43
f 94//1 93//1 103//1 104//1
f 91//44 95//44 112//44 110//44
f 95//45 91//45 106//45 108//45
f 97//17 98//17 100//17 99//17
f 94//46 90//46 97//46 99//46
f 92//47 96//47 100//47 98//47
f 96//18 94//18 99//18 100//18
f 101//13 102//13 104//13 103//13
f 90//48 94//48 104//48 102//48
f 89//9 90//9 102//9 101//9
f 93//49 89//49 101//49 103//49
f 106//10 105//10 107//10 108//10
f 93//12 95//12 108//12 107//12
f 89//50 93//50 107//50 105//50
f 91//7 89//7 105//7 106//7
f 109//15 110//15 112//15 111//15
f 95//16 96//16 111//16 112//16
f 92//2 91//2 110//2 109//2
f 96//51 92//51 109//51 111//51
f 113//52 114//52 116//52 115//52
f 96//53 95//53 115//53 116//53
f 95//54 93//54 113//54 115//54
f 94//55 96//55 116//55 114//55
